<svg width="130" height="284" viewBox="0 0 130 284" fill="none" xmlns="http://www.w3.org/2000/svg">
<path d="M41.8414 126.458C45.7265 124.118 50.7817 125.363 53.1218 129.263C55.4618 133.149 54.2168 138.204 50.3167 140.544C46.4316 142.884 41.3764 141.639 39.0364 137.739C36.6963 133.869 37.9563 128.813 41.8414 126.458Z" fill="#FCC9A7"/>
<path d="M51.1567 127.043C50.8867 126.833 36.4563 109.883 36.4563 109.883L30.5612 117.023L43.5815 133.509L51.1567 127.043Z" fill="#FCC9A7"/>
<path d="M38.9914 259.197L35.3162 275.983L23.7059 274.243L27.456 257.682L38.9914 259.197Z" fill="#FCC9A7"/>
<path d="M91.0428 257.697L91.1779 274.888L79.4926 275.758L79.4625 258.777L91.0428 257.697Z" fill="#FCC9A7"/>
<path d="M36.7863 273.253C36.5463 272.548 35.6913 272.248 35.0762 272.698C33.8762 273.568 31.7611 274.588 28.7011 274.228C25.521 273.853 24.381 272.173 23.991 270.973C23.781 270.342 23.106 270.012 22.491 270.252L2.79538 278.143C1.59535 278.623 0.635294 279.553 0.14028 280.738C-0.339734 281.848 0.470333 283.093 1.68537 283.093L35.1513 283.333C36.4714 283.348 37.5213 282.253 37.4613 280.933L37.1763 274.468C37.1763 274.363 37.1464 274.258 37.1164 274.153L36.7863 273.253Z" fill="#0C0C0C"/>
<path d="M78.3074 273.253C78.5474 272.548 79.4175 272.248 80.0175 272.698C81.2175 273.568 83.3326 274.588 86.3927 274.228C89.5727 273.853 90.6978 272.173 91.1028 270.973C91.3128 270.342 91.9878 270.012 92.6028 270.252L112.298 278.143C113.498 278.623 114.458 279.553 114.953 280.738C115.433 281.848 114.623 283.093 113.408 283.093L79.9425 283.333C78.6224 283.348 77.5725 282.253 77.6325 280.933L77.9174 274.468C77.9174 274.363 77.9474 274.258 77.9774 274.153L78.3074 273.253Z" fill="#0C0C0C"/>
<path d="M78.1575 42.186L67.7622 43.0861L51.2317 52.4013V118.643H95.348V52.4013L78.1575 42.186Z" fill="#0096C7"/>
<path d="M75.3074 48.8613H72.3223C69.2322 48.8613 66.7272 46.3562 66.7272 43.2661V32.0458H80.8876V43.2661C80.9026 46.3562 78.3975 48.8613 75.3074 48.8613Z" fill="#FCC9A7"/>
<path d="M66.7272 37.7609C66.7272 37.7609 68.9322 42.186 73.9424 42.186C78.9525 42.186 80.8876 37.6709 80.8876 37.6709L66.7272 37.7609Z" fill="#F4BE9A"/>
<path d="M73.9724 39.591H73.5074C66.2922 39.591 60.352 33.8908 60.067 26.6756L59.812 19.4904C59.512 11.8552 65.6171 5.51001 73.2523 5.51001H74.2274C80.0025 5.51001 87.9677 11.8552 87.6677 19.4904L87.4127 26.6756C87.1277 33.8908 81.1876 39.591 73.9724 39.591Z" fill="#FCC9A7"/>
<path d="M64.1921 24.9355C64.3571 27.3656 62.5271 29.4656 60.097 29.6306C57.6669 29.7956 55.5669 27.9656 55.4019 25.5355C55.2369 23.1055 57.0669 21.0054 59.497 20.8404C61.927 20.6904 64.0271 22.5204 64.1921 24.9355Z" fill="#FCC9A7"/>
<path d="M92.0629 24.9355C92.2279 27.3656 90.3978 29.4656 87.9677 29.6306C85.5377 29.7956 83.4376 27.9656 83.2726 25.5355C83.1076 23.1055 84.9377 21.0054 87.3678 20.8404C89.7979 20.6904 91.8979 22.5204 92.0629 24.9355Z" fill="#FCC9A7"/>
<path d="M51.2317 118.328L23.796 264.177L39.5614 264.027L79.6725 118.613L51.2317 118.328Z" fill="#0C0C0C"/>
<path d="M95.348 118.643L93.6229 264.327H76.9575L70.3123 119.558L95.348 118.643Z" fill="#0C0C0C"/>
<path d="M51.2317 52.4014C51.2317 52.4014 14.3907 74.632 5.43549 90.0524C3.68044 93.0675 5.96046 96.9676 9.05055 98.5727C12.4706 100.358 16.6858 99.1427 18.6509 95.8276L52.7318 76.057C52.7468 76.057 51.2317 59.0766 51.2317 52.4014Z" fill="#0096C7"/>
<path d="M59.047 11.3302L60.082 22.3705H61.747L61.9571 16.5803C61.9571 16.5803 62.8271 14.3602 66.7122 9.5901C66.7122 9.5901 69.2472 16.0703 84.9526 14.8102L85.8677 22.1305L87.4877 21.9505L88.3427 14.0902C88.9128 11.4352 89.1078 8.96008 88.6278 6.29001C87.6527 0.889856 83.2576 -2.09523 70.5673 1.71488C69.5173 2.02989 71.6623 1.81988 70.5673 1.71488C66.9372 1.30987 57.3669 1.26487 59.047 11.3302Z" fill="#2E2A33"/>
<path d="M77.7374 117.593L74.1673 155.784C74.0323 157.224 75.0074 158.529 76.4324 158.799L120.234 167.17C121.839 167.485 123.369 166.345 123.549 164.725L127.554 128.424C127.704 127.013 126.789 125.708 125.394 125.378L81.1576 115.118C79.5075 114.728 77.9024 115.898 77.7374 117.593Z" fill="#AFAFAF"/>
<path d="M80.1675 118.268L76.5975 156.459C76.4625 157.899 77.4374 159.204 78.8625 159.474L122.664 167.845C124.269 168.145 125.799 167.02 125.979 165.4L129.984 129.099C130.134 127.689 129.219 126.383 127.824 126.053L83.5876 115.793C81.9526 115.403 80.3325 116.573 80.1675 118.268Z" fill="#D1D1D1"/>
<path d="M102.968 157.254C107.318 158.544 109.808 163.119 108.518 167.47C107.228 171.82 102.653 174.31 98.303 173.035C93.9529 171.745 91.4628 167.17 92.7378 162.819C94.0429 158.454 98.603 155.964 102.968 157.254Z" fill="#FCC9A7"/>
<path d="M108.833 164.514C108.803 164.169 107.393 141.279 107.393 141.279L99.608 142.689L100.643 162.204L108.833 164.514Z" fill="#FCC9A7"/>
<path d="M95.348 52.4014C95.348 52.4014 107.138 60.8466 107.888 72.877L111.578 101.003C111.788 102.653 111.878 104.303 111.818 105.968L110.393 148.749H94.208L93.908 102.443L95.348 52.4014Z" fill="#0096C7"/>
<path d="M69.0073 42.186C67.7473 43.1011 61.6721 46.5212 61.6721 46.5212C61.6721 46.5212 61.8371 55.0714 74.7074 54.3814C86.0328 53.7814 85.9578 46.8362 85.9578 46.8362L78.1425 42.186H69.0073Z" fill="#FCC9A7"/>
<path d="M23.5859 84.5022L45.6065 119.693L35.1662 129.578L5.49542 94.9425L23.5859 84.5022Z" fill="#0096C7"/>
<path d="M93.8929 118.178V102.428L90.2328 73.7019" stroke="#424647" stroke-width="0.7693" stroke-miterlimit="10" stroke-linecap="round" stroke-linejoin="round"/>
</svg>
