<svg width="254" height="250" viewBox="0 0 254 250" fill="none" xmlns="http://www.w3.org/2000/svg">
<path d="M21.7205 9.68145C19.0619 9.68145 16.8798 7.52444 16.8798 4.84073C16.8798 2.18209 19.0368 0 21.7205 0C24.4042 0 26.5612 2.15701 26.5612 4.84073C26.5612 7.49936 24.3791 9.68145 21.7205 9.68145Z" fill="white"/>
<path d="M67.2183 9.68145C64.5597 9.68145 62.3776 7.52444 62.3776 4.84073C62.3776 2.18209 64.5346 0 67.2183 0C69.877 0 72.059 2.15701 72.059 4.84073C72.0339 7.49936 69.877 9.68145 67.2183 9.68145Z" fill="white"/>
<path d="M112.691 9.68145C110.032 9.68145 107.85 7.52444 107.85 4.84073C107.85 2.18209 110.007 0 112.691 0C115.35 0 117.532 2.15701 117.532 4.84073C117.532 7.49936 115.375 9.68145 112.691 9.68145Z" fill="white"/>
<path d="M158.189 9.68145C155.53 9.68145 153.348 7.52444 153.348 4.84073C153.348 2.18209 155.505 0 158.189 0C160.848 0 163.03 2.15701 163.03 4.84073C163.03 7.49936 160.848 9.68145 158.189 9.68145Z" fill="white"/>
<path d="M203.662 9.68145C201.003 9.68145 198.821 7.52444 198.821 4.84073C198.821 2.18209 200.978 0 203.662 0C206.32 0 208.502 2.15701 208.502 4.84073C208.502 7.49936 206.345 9.68145 203.662 9.68145Z" fill="white"/>
<path d="M249.159 9.68145C246.501 9.68145 244.319 7.52444 244.319 4.84073C244.319 2.18209 246.476 0 249.159 0C251.843 0 254 2.15701 254 4.84073C254 7.49936 251.818 9.68145 249.159 9.68145Z" fill="white"/>
<path d="M21.7205 51.1662C19.0619 51.1662 16.8798 49.0092 16.8798 46.3255C16.8798 43.6668 19.0368 41.4847 21.7205 41.4847C24.4042 41.4847 26.5612 43.6417 26.5612 46.3255C26.5612 48.9841 24.3791 51.1662 21.7205 51.1662Z" fill="white"/>
<path d="M67.2183 51.1662C64.5597 51.1662 62.3776 49.0092 62.3776 46.3255C62.3776 43.6668 64.5346 41.4847 67.2183 41.4847C69.877 41.4847 72.059 43.6417 72.059 46.3255C72.0339 48.9841 69.877 51.1662 67.2183 51.1662Z" fill="white"/>
<path d="M112.691 51.1662C110.032 51.1662 107.85 49.0092 107.85 46.3255C107.85 43.6668 110.007 41.4847 112.691 41.4847C115.35 41.4847 117.532 43.6417 117.532 46.3255C117.532 48.9841 115.375 51.1662 112.691 51.1662Z" fill="white"/>
<path d="M158.189 51.1662C155.53 51.1662 153.348 49.0092 153.348 46.3255C153.348 43.6668 155.505 41.4847 158.189 41.4847C160.848 41.4847 163.03 43.6417 163.03 46.3255C163.03 48.9841 160.848 51.1662 158.189 51.1662Z" fill="white"/>
<path d="M203.662 51.1662C201.003 51.1662 198.821 49.0092 198.821 46.3255C198.821 43.6668 200.978 41.4847 203.662 41.4847C206.32 41.4847 208.502 43.6417 208.502 46.3255C208.502 48.9841 206.345 51.1662 203.662 51.1662Z" fill="white"/>
<path d="M249.159 51.1662C246.501 51.1662 244.319 49.0092 244.319 46.3255C244.319 43.6668 246.476 41.4847 249.159 41.4847C251.843 41.4847 254 43.6417 254 46.3255C254 48.9841 251.818 51.1662 249.159 51.1662Z" fill="white"/>
<path d="M21.7205 92.6259C19.0619 92.6259 16.8798 90.4689 16.8798 87.7852C16.8798 85.1265 19.0368 82.9445 21.7205 82.9445C24.4042 82.9445 26.5612 85.1014 26.5612 87.7852C26.5612 90.4689 24.3791 92.6259 21.7205 92.6259Z" fill="white"/>
<path d="M67.2183 92.6259C64.5597 92.6259 62.3776 90.4689 62.3776 87.7852C62.3776 85.1265 64.5346 82.9445 67.2183 82.9445C69.877 82.9445 72.059 85.1014 72.059 87.7852C72.0339 90.4689 69.877 92.6259 67.2183 92.6259Z" fill="white"/>
<path d="M112.691 92.6259C110.032 92.6259 107.85 90.4689 107.85 87.7852C107.85 85.1265 110.007 82.9445 112.691 82.9445C115.35 82.9445 117.532 85.1014 117.532 87.7852C117.532 90.4689 115.375 92.6259 112.691 92.6259Z" fill="white"/>
<path d="M158.189 92.6259C155.53 92.6259 153.348 90.4689 153.348 87.7852C153.348 85.1265 155.505 82.9445 158.189 82.9445C160.848 82.9445 163.03 85.1014 163.03 87.7852C163.03 90.4689 160.848 92.6259 158.189 92.6259Z" fill="white"/>
<path d="M203.662 92.6259C201.003 92.6259 198.821 90.4689 198.821 87.7852C198.821 85.1265 200.978 82.9445 203.662 82.9445C206.32 82.9445 208.502 85.1014 208.502 87.7852C208.502 90.4689 206.345 92.6259 203.662 92.6259Z" fill="white"/>
<path d="M249.159 92.6259C246.501 92.6259 244.319 90.4689 244.319 87.7852C244.319 85.1265 246.476 82.9445 249.159 82.9445C251.843 82.9445 254 85.1014 254 87.7852C254 90.4689 251.818 92.6259 249.159 92.6259Z" fill="white"/>
<path d="M21.7205 134.111C19.0619 134.111 16.8798 131.954 16.8798 129.27C16.8798 126.611 19.0368 124.429 21.7205 124.429C24.4042 124.429 26.5612 126.586 26.5612 129.27C26.5612 131.929 24.3791 134.111 21.7205 134.111Z" fill="white"/>
<path d="M67.2183 134.111C64.5597 134.111 62.3776 131.954 62.3776 129.27C62.3776 126.611 64.5346 124.429 67.2183 124.429C69.877 124.429 72.059 126.586 72.059 129.27C72.0339 131.929 69.877 134.111 67.2183 134.111Z" fill="white"/>
<path d="M112.691 134.111C110.032 134.111 107.85 131.954 107.85 129.27C107.85 126.611 110.007 124.429 112.691 124.429C115.35 124.429 117.532 126.586 117.532 129.27C117.532 131.929 115.375 134.111 112.691 134.111Z" fill="white"/>
<path d="M158.189 134.111C155.53 134.111 153.348 131.954 153.348 129.27C153.348 126.611 155.505 124.429 158.189 124.429C160.848 124.429 163.03 126.586 163.03 129.27C163.03 131.929 160.848 134.111 158.189 134.111Z" fill="white"/>
<path d="M203.662 134.111C201.003 134.111 198.821 131.954 198.821 129.27C198.821 126.611 200.978 124.429 203.662 124.429C206.32 124.429 208.502 126.586 208.502 129.27C208.502 131.929 206.345 134.111 203.662 134.111Z" fill="white"/>
<path d="M249.159 134.111C246.501 134.111 244.319 131.954 244.319 129.27C244.319 126.611 246.476 124.429 249.159 124.429C251.843 124.429 254 126.586 254 129.27C254 131.929 251.818 134.111 249.159 134.111Z" fill="white"/>
<path d="M21.7205 175.595C19.0619 175.595 16.8798 173.438 16.8798 170.755C16.8798 168.096 19.0368 165.914 21.7205 165.914C24.4042 165.914 26.5612 168.071 26.5612 170.755C26.5612 173.413 24.3791 175.595 21.7205 175.595Z" fill="white"/>
<path d="M67.2183 175.595C64.5597 175.595 62.3776 173.438 62.3776 170.755C62.3776 168.096 64.5346 165.914 67.2183 165.914C69.877 165.914 72.059 168.071 72.059 170.755C72.0339 173.413 69.877 175.595 67.2183 175.595Z" fill="white"/>
<path d="M112.691 175.595C110.032 175.595 107.85 173.438 107.85 170.755C107.85 168.096 110.007 165.914 112.691 165.914C115.35 165.914 117.532 168.071 117.532 170.755C117.532 173.413 115.375 175.595 112.691 175.595Z" fill="white"/>
<path d="M158.189 175.595C155.53 175.595 153.348 173.438 153.348 170.755C153.348 168.096 155.505 165.914 158.189 165.914C160.848 165.914 163.03 168.071 163.03 170.755C163.03 173.413 160.848 175.595 158.189 175.595Z" fill="white"/>
<path d="M203.662 175.595C201.003 175.595 198.821 173.438 198.821 170.755C198.821 168.096 200.978 165.914 203.662 165.914C206.32 165.914 208.502 168.071 208.502 170.755C208.502 173.413 206.345 175.595 203.662 175.595Z" fill="white"/>
<path d="M249.159 175.595C246.501 175.595 244.319 173.438 244.319 170.755C244.319 168.096 246.476 165.914 249.159 165.914C251.843 165.914 254 168.071 254 170.755C254 173.413 251.818 175.595 249.159 175.595Z" fill="white"/>
<path d="M21.7205 217.055C19.0619 217.055 16.8798 214.898 16.8798 212.214C16.8798 209.556 19.0368 207.374 21.7205 207.374C24.4042 207.374 26.5612 209.531 26.5612 212.214C26.5612 214.898 24.3791 217.055 21.7205 217.055Z" fill="white"/>
<path d="M67.2183 217.055C64.5597 217.055 62.3776 214.898 62.3776 212.214C62.3776 209.556 64.5346 207.374 67.2183 207.374C69.877 207.374 72.059 209.531 72.059 212.214C72.0339 214.898 69.877 217.055 67.2183 217.055Z" fill="white"/>
<path d="M112.691 217.055C110.032 217.055 107.85 214.898 107.85 212.214C107.85 209.556 110.007 207.374 112.691 207.374C115.35 207.374 117.532 209.531 117.532 212.214C117.532 214.898 115.375 217.055 112.691 217.055Z" fill="white"/>
<path d="M158.189 217.055C155.53 217.055 153.348 214.898 153.348 212.214C153.348 209.556 155.505 207.374 158.189 207.374C160.848 207.374 163.03 209.531 163.03 212.214C163.03 214.898 160.848 217.055 158.189 217.055Z" fill="white"/>
<path d="M203.662 217.055C201.003 217.055 198.821 214.898 198.821 212.214C198.821 209.556 200.978 207.374 203.662 207.374C206.32 207.374 208.502 209.531 208.502 212.214C208.502 214.898 206.345 217.055 203.662 217.055Z" fill="white"/>
<path d="M249.159 217.055C246.501 217.055 244.319 214.898 244.319 212.214C244.319 209.556 246.476 207.374 249.159 207.374C251.843 207.374 254 209.531 254 212.214C254 214.898 251.818 217.055 249.159 217.055Z" fill="white"/>
<path d="M213.318 249.586L0 36.2678H213.318V249.586Z" fill="#0096C7"/>
</svg>
