<svg width="141" height="44" viewBox="0 0 141 44" fill="none" xmlns="http://www.w3.org/2000/svg">
<rect y="7" width="32.0545" height="30.3966" fill="#0C0C0C"/>
<circle cx="3.03962" cy="33.2515" r="1.38166" fill="white"/>
<line x1="3.86871" y1="33.4752" x2="6.12736e-05" y2="33.4752" stroke="white"/>
<circle cx="3.03957" cy="33.2515" r="0.828997" fill="#0C0C0C"/>
<circle cx="3.03962" cy="11.145" r="1.38166" fill="white"/>
<line x1="3.86871" y1="11.3687" x2="6.12736e-05" y2="11.3687" stroke="white"/>
<circle cx="3.03957" cy="11.1449" r="0.828997" fill="#0C0C0C"/>
<path d="M24.241 35L18.157 26.252L12.181 35H5.48495L14.809 22.184L5.95295 9.8H12.577L18.373 17.972L24.061 9.8H30.361L21.577 21.968L30.973 35H24.241Z" fill="white"/>
<path d="M57.1762 9.8V35H52.3882L39.8242 19.7V35H34.0642V9.8H38.8882L51.4162 25.1V9.8H57.1762ZM71.9584 35.288C69.9184 35.288 68.0824 34.868 66.4504 34.028C64.8424 33.164 63.5824 31.976 62.6704 30.464C61.7584 28.952 61.3024 27.236 61.3024 25.316C61.3024 23.396 61.7584 21.68 62.6704 20.168C63.5824 18.656 64.8424 17.48 66.4504 16.64C68.0824 15.776 69.9184 15.344 71.9584 15.344C73.9984 15.344 75.8224 15.776 77.4304 16.64C79.0384 17.48 80.2984 18.656 81.2104 20.168C82.1224 21.68 82.5784 23.396 82.5784 25.316C82.5784 27.236 82.1224 28.952 81.2104 30.464C80.2984 31.976 79.0384 33.164 77.4304 34.028C75.8224 34.868 73.9984 35.288 71.9584 35.288ZM71.9584 30.68C73.3984 30.68 74.5744 30.2 75.4864 29.24C76.4224 28.256 76.8904 26.948 76.8904 25.316C76.8904 23.684 76.4224 22.388 75.4864 21.428C74.5744 20.444 73.3984 19.952 71.9584 19.952C70.5184 19.952 69.3304 20.444 68.3944 21.428C67.4584 22.388 66.9904 23.684 66.9904 25.316C66.9904 26.948 67.4584 28.256 68.3944 29.24C69.3304 30.2 70.5184 30.68 71.9584 30.68ZM98.8242 34.064C98.2722 34.472 97.5882 34.784 96.7722 35C95.9802 35.192 95.1402 35.288 94.2522 35.288C91.9482 35.288 90.1602 34.7 88.8882 33.524C87.6402 32.348 87.0162 30.62 87.0162 28.34V20.384H84.0282V16.064H87.0162V11.348H92.6322V16.064H97.4562V20.384H92.6322V28.268C92.6322 29.084 92.8362 29.72 93.2442 30.176C93.6762 30.608 94.2762 30.824 95.0442 30.824C95.9322 30.824 96.6882 30.584 97.3122 30.104L98.8242 34.064ZM120.351 25.388C120.351 25.46 120.315 25.964 120.243 26.9H105.591C105.855 28.1 106.479 29.048 107.463 29.744C108.447 30.44 109.671 30.788 111.135 30.788C112.143 30.788 113.031 30.644 113.799 30.356C114.591 30.044 115.323 29.564 115.995 28.916L118.983 32.156C117.159 34.244 114.495 35.288 110.991 35.288C108.807 35.288 106.875 34.868 105.195 34.028C103.515 33.164 102.219 31.976 101.307 30.464C100.395 28.952 99.9391 27.236 99.9391 25.316C99.9391 23.42 100.383 21.716 101.271 20.204C102.183 18.668 103.419 17.48 104.979 16.64C106.563 15.776 108.327 15.344 110.271 15.344C112.167 15.344 113.883 15.752 115.419 16.568C116.955 17.384 118.155 18.56 119.019 20.096C119.907 21.608 120.351 23.372 120.351 25.388ZM110.307 19.592C109.035 19.592 107.967 19.952 107.103 20.672C106.239 21.392 105.711 22.376 105.519 23.624H115.059C114.867 22.4 114.339 21.428 113.475 20.708C112.611 19.964 111.555 19.592 110.307 19.592ZM130.606 35.288C128.998 35.288 127.426 35.096 125.89 34.712C124.354 34.304 123.13 33.8 122.218 33.2L124.09 29.168C124.954 29.72 125.998 30.176 127.222 30.536C128.446 30.872 129.646 31.04 130.822 31.04C133.198 31.04 134.386 30.452 134.386 29.276C134.386 28.724 134.062 28.328 133.414 28.088C132.766 27.848 131.77 27.644 130.426 27.476C128.842 27.236 127.534 26.96 126.502 26.648C125.47 26.336 124.57 25.784 123.802 24.992C123.058 24.2 122.686 23.072 122.686 21.608C122.686 20.384 123.034 19.304 123.73 18.368C124.45 17.408 125.482 16.664 126.826 16.136C128.194 15.608 129.802 15.344 131.65 15.344C133.018 15.344 134.374 15.5 135.718 15.812C137.086 16.1 138.214 16.508 139.102 17.036L137.23 21.032C135.526 20.072 133.666 19.592 131.65 19.592C130.45 19.592 129.55 19.76 128.95 20.096C128.35 20.432 128.05 20.864 128.05 21.392C128.05 21.992 128.374 22.412 129.022 22.652C129.67 22.892 130.702 23.12 132.118 23.336C133.702 23.6 134.998 23.888 136.006 24.2C137.014 24.488 137.89 25.028 138.634 25.82C139.378 26.612 139.75 27.716 139.75 29.132C139.75 30.332 139.39 31.4 138.67 32.336C137.95 33.272 136.894 34.004 135.502 34.532C134.134 35.036 132.502 35.288 130.606 35.288Z" fill="#0096C7"/>
</svg>
